<svg id="Layer_3" enable-background="new 0 0 64 64" height="512" viewBox="0 0 64 64" width="512" xmlns="http://www.w3.org/2000/svg"><g><path d="m32 31c-8.822 0-16 7.178-16 16s7.178 16 16 16 16-7.178 16-16-7.178-16-16-16zm0 30c-7.72 0-14-6.28-14-14s6.28-14 14-14 14 6.28 14 14-6.28 14-14 14z"/><path d="m19.272 46h25.456v2h-25.456z" transform="matrix(.707 -.707 .707 .707 -23.861 36.393)"/><path d="m27 46c2.206 0 4-1.794 4-4s-1.794-4-4-4-4 1.794-4 4 1.794 4 4 4zm0-6c1.103 0 2 .897 2 2s-.897 2-2 2-2-.897-2-2 .897-2 2-2z"/><path d="m37 48c-2.206 0-4 1.794-4 4s1.794 4 4 4 4-1.794 4-4-1.794-4-4-4zm0 6c-1.103 0-2-.897-2-2s.897-2 2-2 2 .897 2 2-.897 2-2 2z"/><path d="m54 22c-4.962 0-9 4.038-9 9s4.038 9 9 9 9-4.038 9-9-4.038-9-9-9zm-7 9c0-3.519 2.613-6.432 6-6.92v1.104c-1.161.414-2 1.514-2 2.816v1c0 1.654 1.346 3 3 3 .551 0 1 .449 1 1v1c0 .551-.449 1-1 1s-1-.449-1-1v-1h-2v1c0 1.302.839 2.402 2 2.816v1.104c-3.387-.488-6-3.401-6-6.92zm8 6.92v-1.104c1.161-.414 2-1.514 2-2.816v-1c0-1.654-1.346-3-3-3-.551 0-1-.449-1-1v-1c0-.551.449-1 1-1s1 .449 1 1v1h2v-1c0-1.302-.839-2.402-2-2.816v-1.104c3.387.488 6 3.401 6 6.92s-2.613 6.432-6 6.92z"/><path d="m19 31c0-4.962-4.038-9-9-9s-9 4.038-9 9 4.038 9 9 9 9-4.038 9-9zm-16 0c0-3.519 2.613-6.432 6-6.92v1.104c-1.161.414-2 1.514-2 2.816v1c0 1.654 1.346 3 3 3 .551 0 1 .449 1 1v1c0 .551-.449 1-1 1s-1-.449-1-1v-1h-2v1c0 1.302.839 2.402 2 2.816v1.104c-3.387-.488-6-3.401-6-6.92zm8 6.92v-1.104c1.161-.414 2-1.514 2-2.816v-1c0-1.654-1.346-3-3-3-.551 0-1-.449-1-1v-1c0-.551.449-1 1-1s1 .449 1 1v1h2v-1c0-1.302-.839-2.402-2-2.816v-1.104c3.387.488 6 3.401 6 6.92s-2.613 6.432-6 6.92z"/><path d="m22 13h5v7h2v-8c0-.552-.448-1-1-1h-3.586l7.586-7.586 7.586 7.586h-3.586c-.552 0-1 .448-1 1v8h2v-7h5c.404 0 .769-.244.924-.617.155-.374.069-.804-.217-1.09l-10-10c-.391-.391-1.023-.391-1.414 0l-10 10c-.286.286-.372.716-.217 1.09.155.373.52.617.924.617z"/><path d="m27 22h2v2h-2z"/><path d="m27 26h2v2h-2z"/><path d="m35 22h2v2h-2z"/><path d="m35 26h2v2h-2z"/><path d="m51 19h2v2h-2z"/><path d="m51 15h2v2h-2z"/><path d="m55 19h2v2h-2z"/><path d="m55 15h2v2h-2z"/><path d="m48 11h3v2h2v-3c0-.552-.448-1-1-1h-1.586l3.586-3.586 3.586 3.586h-1.586c-.552 0-1 .448-1 1v3h2v-2h3c.404 0 .769-.244.924-.617.155-.374.069-.804-.217-1.09l-6-6c-.391-.391-1.023-.391-1.414 0l-6 6c-.286.286-.372.716-.217 1.09.155.373.52.617.924.617z"/><path d="m7 19h2v2h-2z"/><path d="m7 15h2v2h-2z"/><path d="m11 19h2v2h-2z"/><path d="m11 15h2v2h-2z"/><path d="m4 11h3v2h2v-3c0-.552-.448-1-1-1h-1.586l3.586-3.586 3.586 3.586h-1.586c-.552 0-1 .448-1 1v3h2v-2h3c.404 0 .769-.244.924-.617.155-.374.069-.804-.217-1.09l-6-6c-.391-.391-1.023-.391-1.414 0l-6 6c-.286.286-.372.716-.217 1.09.155.373.52.617.924.617z"/></g></svg>