<svg id="Layer_3" enable-background="new 0 0 64 64" height="512" viewBox="0 0 64 64" width="512" xmlns="http://www.w3.org/2000/svg"><g><path d="m37 21c0-8.822-7.178-16-16-16s-16 7.178-16 16 7.178 16 16 16 16-7.178 16-16zm-13 13.668v-1.497c0-.488.19-.947.536-1.293l1.343-1.343c.723-.723 1.121-1.684 1.121-2.706 0-1.009.82-1.829 1.829-1.829 1.022 0 1.984-.398 2.707-1.122l.343-.343c.345-.345.804-.535 1.292-.535h1.497c-1.166 5.314-5.354 9.502-10.668 10.668zm10.061-18.668h-3.182c-.3 0-.581-.117-.793-.328l-1.758-1.758c-.589-.589-1.373-.914-2.207-.914h-1c-.618 0-1.121-.503-1.121-1.121 0-.834-.325-1.618-.914-2.207l-.758-.758c-.211-.212-.328-.493-.328-.793v-1.07c5.521.393 10.157 3.992 12.061 8.949zm-14.061-8.949v1.07c0 .834.325 1.618.914 2.207l.758.758c.211.212.328.493.328.793 0 1.721 1.4 3.121 3.121 3.121h1c.3 0 .581.117.793.328l1.758 1.758c.589.589 1.373.914 2.207.914h3.789c.212.968.332 1.97.332 3 0 .338-.027.668-.051 1h-1.778c-1.022 0-1.984.398-2.707 1.122l-.343.343c-.345.345-.804.535-1.292.535-2.112 0-3.829 1.717-3.829 3.829 0 .488-.19.947-.536 1.293l-1.343 1.343c-.723.723-1.121 1.684-1.121 2.706v1.778c-.332.024-.662.051-1 .051-2.974 0-5.73-.939-8-2.527v-3.059c0-.635.258-1.258.707-1.707.834-.833 1.293-1.942 1.293-3.121v-1.172c0-1.179-.459-2.288-1.293-3.121l-1-1c-.449-.449-.707-1.072-.707-1.707v-.172c0-1.179-.459-2.288-1.293-3.121l-1.228-1.228c2.349-3.401 6.162-5.704 10.521-6.014zm-13 13.949c0-2.206.527-4.287 1.44-6.146l.853.853c.449.449.707 1.072.707 1.707v.172c0 1.179.459 2.288 1.293 3.121l1 1c.449.449.707 1.072.707 1.707v1.172c0 .635-.258 1.258-.707 1.707-.834.833-1.293 1.942-1.293 3.121v1.365c-2.47-2.525-4-5.975-4-9.779z"/><path d="m61 40c0-.552-.448-1-1-1h-4c-.552 0-1 .448-1 1v15h-2v-11c0-.552-.448-1-1-1h-4c-.552 0-1 .448-1 1v11h-2v-7c0-.552-.448-1-1-1h-4c-.552 0-1 .448-1 1v7h-2v-3c0-.552-.448-1-1-1h-4c-.552 0-1 .448-1 1v3h-5v-11c0-.552-.448-1-1-1h-1v-2.25c9.606-1.455 17-9.744 17-19.75 0-11.028-8.972-20-20-20s-20 8.972-20 20c0 10.006 7.394 18.295 17 19.75v2.25h-1c-.552 0-1 .448-1 1v18c0 .552.448 1 1 1h8c.552 0 1-.448 1-1v-3h-2v2h-6v-16h6v11c0 .552.448 1 1 1h38v-2h-2zm-58-19c0-9.925 8.075-18 18-18s18 8.075 18 18-8.075 18-18 18-18-8.075-18-18zm17 19.949c.333.017.662.051 1 .051s.667-.034 1-.051v2.051h-2zm37 .051h2v14h-2zm-8 4h2v10h-2zm-8 4h2v6h-2zm-8 4h2v2h-2z"/><path d="m54 37c4.962 0 9-4.038 9-9s-4.038-9-9-9-9 4.038-9 9 4.038 9 9 9zm7-9c0 3.519-2.613 6.432-6 6.92v-1.104c1.161-.414 2-1.514 2-2.816v-1c0-1.654-1.346-3-3-3-.551 0-1-.449-1-1v-1c0-.551.449-1 1-1s1 .449 1 1v1h2v-1c0-1.302-.839-2.402-2-2.816v-1.104c3.387.488 6 3.401 6 6.92zm-8-6.92v1.104c-1.161.414-2 1.514-2 2.816v1c0 1.654 1.346 3 3 3 .551 0 1 .449 1 1v1c0 .551-.449 1-1 1s-1-.449-1-1v-1h-2v1c0 1.302.839 2.402 2 2.816v1.104c-3.387-.488-6-3.401-6-6.92s2.613-6.432 6-6.92z"/></g></svg>