<svg height="512pt" viewBox="-116 0 512 512" width="512pt" xmlns="http://www.w3.org/2000/svg"><path d="m235.53125 52.964844h-9.148438v-24.625c0-15.625-12.714843-28.339844-28.34375-28.339844h-116.675781c-15.625 0-28.339843 12.714844-28.339843 28.339844v24.625h-9.152344c-24.191406 0-43.871094 19.683594-43.871094 43.875v371.285156c0 24.191406 19.683594 43.875 43.871094 43.875h191.660156c24.195312 0 43.875-19.683594 43.875-43.875v-371.285156c0-24.195313-19.679688-43.875-43.875-43.875zm-162.507812-24.625c0-4.597656 3.742187-8.339844 8.339843-8.339844h116.675781c4.601563 0 8.34375 3.742188 8.34375 8.339844v24.625h-133.359374zm186.382812 439.785156c0 13.164062-10.710938 23.875-23.875 23.875h-191.660156c-13.160156 0-23.871094-10.710938-23.871094-23.875v-371.285156c0-13.164063 10.710938-23.875 23.871094-23.875h191.660156c13.164062 0 23.875 10.710937 23.875 23.875zm0 0"/><path d="m229.40625 92.964844h-179.40625c-5.523438 0-10 4.476562-10 10v359.035156c0 5.523438 4.476562 10 10 10h179.40625c5.523438 0 10-4.476562 10-10v-145c0-5.523438-4.476562-10-10-10s-10 4.476562-10 10v70h-159.40625v-274.035156h159.40625v74.035156c0 5.523438 4.476562 10 10 10s10-4.476562 10-10v-84.035156c0-5.523438-4.476562-10-10-10zm-10 314.035156v45h-159.40625v-45zm0 0"/><path d="m229.402344 263c-.648438 0-1.300782-.070312-1.949219-.199219-.640625-.121093-1.269531-.320312-1.871094-.570312-.597656-.25-1.1875-.558594-1.730469-.921875-.546874-.359375-1.058593-.777344-1.519531-1.238282-.460937-.460937-.878906-.96875-1.238281-1.519531-.359375-.539062-.671875-1.121093-.921875-1.730469-.25-.601562-.4375-1.230468-.570313-1.871093-.128906-.640625-.199218-1.300781-.199218-1.949219s.070312-1.308594.199218-1.949219c.132813-.640625.320313-1.269531.570313-1.878906.25-.601563.5625-1.179687.921875-1.722656.359375-.550781.777344-1.058594 1.238281-1.519531 1.871094-1.859376 4.441407-2.929688 7.070313-2.929688s5.210937 1.070312 7.082031 2.929688c.457031.460937.867187.972656 1.238281 1.519531.359375.542969.671875 1.121093.921875 1.722656.25.609375.4375 1.238281.570313 1.878906.128906.640625.1875 1.300781.1875 1.949219s-.058594 1.3125-.1875 1.949219c-.132813.640625-.320313 1.273437-.570313 1.871093-.25.609376-.5625 1.191407-.921875 1.730469-.371094.550781-.78125 1.058594-1.238281 1.519531-.472656.460938-.980469.878907-1.53125 1.238282-.539063.363281-1.121094.671875-1.71875.921875-.613281.25-1.242187.449219-1.871094.570312-.648437.128907-1.308593.199219-1.960937.199219zm0 0"/><path d="m116.636719 347.574219c-1.265625 0-2.542969-.238281-3.773438-.738281-4.332031-1.769532-6.859375-6.300782-6.085937-10.910157l10.046875-60.035156h-23.855469c-3.085938 0-6.003906-1.425781-7.898438-3.863281-1.894531-2.4375-2.554687-5.613282-1.792968-8.605469l23.3125-91.464844c1.128906-4.429687 5.117187-7.53125 9.6875-7.53125h43.851562c3.089844 0 6.003906 1.429688 7.898438 3.867188 1.894531 2.4375 2.554687 5.613281 1.792968 8.605469l-12.875 50.449218h29.496094c3.722656 0 7.136719 2.070313 8.863282 5.371094 1.722656 3.304688 1.46875 7.289062-.660157 10.34375l-69.796875 100.226562c-1.917968 2.75-5.015625 4.285157-8.210937 4.285157zm-10.800781-91.683594h22.800781c2.9375 0 5.730469 1.292969 7.628906 3.539063 1.902344 2.246093 2.71875 5.210937 2.230469 8.109374l-4.65625 27.839844 33.445312-48.03125h-23.210937c-3.089844 0-6.003907-1.425781-7.898438-3.863281s-2.554687-5.617187-1.792969-8.605469l12.871094-50.453125h-23.207031zm0 0"/></svg>